<?xml version="1.0" encoding="UTF-8"?>
<svg version="1.1" xmlns="http://www.w3.org/2000/svg" width="64" height="64">
<path d="M0 0 C5.74878489 4.38952773 10.86633901 11.51318808 12.05078125 18.75 C12.80065902 29.88752877 12.46271824 39.28401149 5.42578125 48.5 C-0.16912254 54.52308521 -7.32027455 58.43833819 -15.48828125 58.98828125 C-26.20542141 59.27952927 -35.14630209 58.2120695 -43.34765625 50.59375 C-51.3869265 41.33878523 -52.67841391 32.52227501 -52.12841797 20.69873047 C-51.44383799 13.25415642 -47.5350846 6.60212923 -41.94921875 1.75 C-29.18967617 -7.17360414 -13.43737558 -8.61715468 0 0 Z " fill="#115FA4" transform="translate(51.94921875,5.25)"/>
<path d="M0 0 C3.96 0 7.92 0 12 0 C13.71288961 4.94657616 15.42178426 9.89450704 17.12695312 14.84375 C17.70788078 16.52805031 18.28990808 18.21197176 18.87304688 19.89550781 C19.70991158 22.31216812 20.54284253 24.7301529 21.375 27.1484375 C21.63748535 27.9036972 21.8999707 28.65895691 22.17041016 29.43710327 C24 34.77225659 24 34.77225659 24 37 C20.7 37 17.4 37 14 37 C13.34 34.03 12.68 31.06 12 28 C8.04 28 4.08 28 0 28 C-0.66 30.97 -1.32 33.94 -2 37 C-5.3 37 -8.6 37 -12 37 C-10.85581791 31.18374104 -9.30647336 25.80525692 -7.21875 20.26171875 C-5.67514299 16.13059101 -4.21221637 11.97299758 -2.75 7.8125 C-2.34442871 6.66104492 -2.34442871 6.66104492 -1.93066406 5.48632812 C-1.28659422 3.65773345 -0.64322154 1.82889324 0 0 Z " fill="#F7FAFC" transform="translate(26,12)"/>
<path d="M0 0 C0.66 0 1.32 0 2 0 C3.19287411 3.87684087 4 6.91621923 4 11 C1.69 11 -0.62 11 -3 11 C-2.01 7.37 -1.02 3.74 0 0 Z " fill="#256DAB" transform="translate(31,22)"/>
</svg>
