<svg width="160" height="103" viewBox="0 0 160 103" fill="none" xmlns="http://www.w3.org/2000/svg">
<path d="M51.5962 9.07367e-06C39.6655 -0.00704983 28.1014 4.10471 18.8747 11.6346C9.64793 19.1645 3.32946 29.6466 0.995981 41.2946C-1.3375 52.9427 0.458421 65.0358 6.07769 75.5133C11.697 85.9908 20.7918 94.2044 31.8125 98.7542C42.8332 103.304 55.0976 103.909 66.5159 100.465C77.9342 97.0214 87.7997 89.7427 94.4313 79.8691C101.063 69.9955 104.05 58.1382 102.884 46.3176C101.718 34.4971 96.4708 23.4448 88.0364 15.0442C83.2534 10.2759 77.5731 6.4928 71.3204 3.91139C65.0677 1.32999 58.3652 0.000859934 51.5962 9.07367e-06V9.07367e-06ZM51.5962 77.8742C45.4387 77.8765 39.471 75.7532 34.7098 71.8661C29.9487 67.979 26.6888 62.5686 25.4856 56.5568C24.2824 50.5451 25.2103 44.304 28.1113 38.897C31.0123 33.49 35.7069 29.2518 41.395 26.9044C47.0831 24.5571 53.4128 24.246 59.3056 26.024C65.1983 27.8021 70.2894 31.5593 73.7114 36.6554C77.1333 41.7516 78.6744 47.8713 78.072 53.9718C77.4695 60.0724 74.7609 65.7762 70.4075 70.1113C67.9395 72.5742 65.0074 74.5277 61.7793 75.8599C58.5512 77.192 55.0906 77.8765 51.5962 77.8742V77.8742Z" fill="black"/>
<path d="M159.127 0L135.053 51.5H110.15L134.184 0H159.127Z" fill="black"/>
<path d="M160 51.5L135.966 103H111.023L135.053 51.5H160Z" fill="black"/>
</svg>
